<?xml version="1.0" standalone="no"?>
<!DOCTYPE svg PUBLIC "-//W3C//DTD SVG 20010904//EN"
 "http://www.w3.org/TR/2001/REC-SVG-20010904/DTD/svg10.dtd">
<svg version="1.0" xmlns="http://www.w3.org/2000/svg"
 width="600.000000pt" height="600.000000pt" viewBox="0 0 600.000000 600.000000"
 preserveAspectRatio="xMidYMid meet">
<metadata>
Created by potrace 1.11, written by Peter Selinger 2001-2013
</metadata>
<g transform="translate(0.000000,600.000000) scale(0.100000,-0.100000)"
fill="#000000" stroke="none">
<path d="M2751 5839 c-788 -70 -1496 -450 -1990 -1069 -326 -408 -524 -881
-597 -1420 -23 -172 -23 -519 0 -695 48 -358 133 -633 294 -950 343 -671 924
-1169 1647 -1410 180 -60 450 -120 508 -112 20 3 37 1 37 -4 0 -5 5 -9 10 -9
6 0 10 7 10 15 0 12 4 11 20 -5 21 -21 110 -29 110 -10 0 6 5 10 11 10 5 0 7
-4 4 -10 -4 -6 11 -10 37 -11 24 0 67 -3 96 -5 39 -4 52 -2 47 6 -6 9 -2 9 12
1 30 -16 254 0 433 30 162 27 250 47 290 66 19 9 44 17 55 17 50 4 208 59 353
123 91 40 102 48 97 67 -5 19 -5 19 5 3 10 -16 16 -14 81 19 38 20 67 39 64
44 -3 4 10 11 29 14 18 4 46 18 60 31 15 14 30 25 35 25 4 0 16 7 27 15 18 14
18 15 -11 40 -27 24 -28 26 -7 22 12 -3 22 -2 22 3 0 4 18 10 41 14 31 5 38
10 31 19 -13 15 37 20 56 5 18 -15 15 1 -5 20 -16 16 -15 18 10 26 15 6 27 13
27 18 0 13 -35 9 -49 -4 -10 -11 -12 -9 -9 7 3 17 -2 20 -36 18 -46 -3 -67
-18 -37 -26 12 -3 22 1 25 9 7 17 39 19 34 2 -3 -7 -21 -17 -41 -22 -35 -9
-51 -26 -25 -26 8 0 9 -3 1 -11 -8 -8 -30 -14 -75 -18 -3 -1 -9 -9 -11 -18 -4
-17 -5 -17 -6 -1 -1 12 -6 15 -18 11 -16 -6 -16 -5 -4 11 8 9 21 14 28 11 9
-3 13 0 11 7 -5 13 -59 15 -102 4 -14 -3 -26 -2 -26 3 0 5 18 12 39 16 22 3
47 13 58 21 12 9 13 13 3 10 -54 -15 -75 -17 -63 -6 6 7 26 16 45 20 l33 8
-37 1 c-21 1 -38 5 -38 11 0 9 61 24 92 22 10 0 20 3 23 9 11 16 55 11 55 -7
0 -11 -6 -15 -20 -11 -11 3 -20 1 -20 -5 0 -6 -7 -8 -15 -5 -14 6 -28 -7 -31
-30 -4 -25 15 -23 63 5 26 15 59 29 73 29 51 4 65 12 66 38 2 22 -2 25 -33 25
-20 0 -32 -4 -28 -10 7 -11 -8 -14 -18 -4 -8 9 3 35 13 29 11 -7 40 5 40 17 0
6 -16 7 -42 2 -24 -4 -52 -6 -63 -5 -11 1 -30 3 -43 4 -12 1 -22 6 -21 11 1
13 -22 25 -38 19 -19 -7 -16 -23 5 -24 11 -1 9 -4 -8 -9 -36 -11 -60 -12 -60
0 0 5 7 7 15 4 8 -4 15 -1 15 5 0 10 -13 14 -52 14 -10 0 -18 2 -18 6 0 8 50
46 61 46 4 0 11 3 15 7 4 5 2 8 -4 8 -7 0 -12 5 -12 11 0 7 7 8 18 4 30 -13
116 -14 124 -2 12 19 9 27 -8 27 -10 0 -14 -6 -10 -15 3 -8 1 -15 -3 -15 -18
0 -41 12 -41 22 0 6 7 8 15 4 8 -3 15 -1 15 4 0 12 33 13 44 2 10 -9 76 -9 76
1 0 4 -4 7 -10 7 -5 0 -10 5 -10 10 0 6 9 10 19 10 11 0 23 5 26 10 3 6 17 10
30 10 13 0 27 5 30 10 3 6 16 10 28 11 13 0 16 3 9 6 -8 3 -24 1 -35 -5 -12
-5 -56 -16 -97 -24 -41 -9 -84 -18 -95 -22 -11 -4 -4 2 15 13 l35 20 -35 -6
c-52 -9 -25 11 35 25 28 7 55 19 60 26 6 7 35 24 65 36 62 27 65 28 59 35 -5
4 -64 -14 -84 -26 -5 -3 -29 -5 -52 -4 -30 1 -43 -3 -43 -12 0 -7 12 -13 28
-14 l27 0 -24 -12 c-19 -9 -25 -9 -29 1 -2 6 -11 12 -20 12 -12 0 -13 3 -4 12
17 17 15 31 -3 24 -10 -3 -15 1 -15 14 0 11 -8 20 -22 23 -23 4 -23 4 2 14 20
8 28 7 40 -8 15 -16 21 -16 73 -4 31 7 63 20 72 28 8 9 25 19 36 22 16 5 18
10 10 18 -9 9 -14 8 -20 -2 -6 -9 -18 -11 -36 -7 -17 4 -24 3 -20 -3 4 -7 -10
-9 -41 -4 -34 4 -45 3 -40 -5 5 -8 2 -10 -9 -6 -24 10 -13 27 21 31 16 2 54
11 84 19 30 9 65 18 77 21 12 3 24 12 28 20 4 13 -1 15 -32 10 -21 -4 -39 -11
-41 -17 -2 -5 -8 -7 -13 -4 -6 3 -16 1 -23 -5 -14 -12 -46 -5 -46 10 0 5 13 9
28 9 21 0 28 5 29 20 1 11 -3 20 -8 20 -6 0 -7 5 -4 10 3 6 -1 10 -10 10 -10
0 -13 -5 -9 -12 5 -8 0 -9 -14 -6 -12 4 -22 2 -22 -3 0 -5 12 -9 28 -10 l27
-1 -26 -7 c-14 -5 -34 -13 -46 -19 -16 -9 -55 -17 -106 -21 -5 -1 -5 -10 -2
-21 8 -24 -2 -26 -27 -4 -14 14 -20 14 -33 4 -20 -17 -19 -36 3 -45 15 -6 14
-8 -8 -18 l-25 -10 30 -6 c18 -4 31 -13 33 -25 3 -11 0 -16 -7 -11 -6 3 -9 11
-6 16 4 5 -1 9 -9 9 -9 0 -16 -7 -16 -15 0 -19 -24 -19 -44 0 -22 23 -32 18
-11 -5 18 -20 18 -21 -8 -47 -22 -22 -28 -24 -42 -13 -13 11 -18 10 -29 -5 -7
-10 -18 -15 -24 -11 -7 4 -12 2 -12 -3 0 -6 6 -11 14 -11 20 0 28 -40 9 -47
-16 -6 -35 15 -27 29 3 4 1 8 -5 8 -5 0 -15 17 -22 37 -16 47 -16 47 -18 81 0
15 -16 50 -33 77 -18 27 -42 63 -52 82 -23 39 -32 38 -14 -1 9 -22 9 -29 0
-35 -15 -9 -7 -35 20 -70 l18 -24 -7 34 c-6 30 -5 33 10 21 8 -7 19 -27 22
-43 4 -16 11 -29 16 -29 5 0 9 -10 9 -22 0 -13 7 -44 15 -71 8 -26 10 -47 5
-47 -6 0 -10 6 -11 13 0 6 -5 -1 -11 -17 -8 -21 -7 -30 2 -36 7 -4 10 -17 7
-29 -3 -12 -1 -24 4 -27 15 -9 10 -41 -7 -48 -24 -9 -26 -8 -19 14 4 12 2 20
-5 20 -7 0 -9 7 -6 16 3 9 -2 38 -11 65 -14 38 -22 49 -39 49 -15 0 -24 8 -28
25 -4 16 -13 25 -25 25 -14 0 -18 5 -14 19 3 11 -2 21 -13 25 -25 10 -29 0
-10 -28 9 -14 16 -38 16 -54 0 -30 29 -81 30 -52 0 9 -5 21 -11 27 -6 6 -9 21
-7 34 3 23 4 23 21 -8 10 -18 16 -35 15 -37 -2 -2 0 -8 5 -12 4 -4 7 -2 7 4 0
24 21 11 34 -21 18 -43 26 -116 15 -123 -5 -3 -12 2 -15 10 -3 9 -10 13 -16
10 -5 -3 -20 -3 -32 0 -24 6 -35 29 -43 91 -2 16 -7 33 -12 38 -5 5 -7 15 -5
21 5 14 -21 82 -36 91 -17 11 -11 -26 10 -55 13 -18 16 -31 10 -35 -14 -9 -12
-45 3 -75 8 -14 16 -36 19 -48 5 -18 2 -22 -16 -22 -25 0 -47 35 -45 73 0 21
1 21 9 2 10 -22 13 -5 4 19 -5 12 -9 13 -18 3 -20 -20 -26 -57 -10 -57 17 0
18 -7 2 -24 -11 -11 -15 -11 -25 3 -8 10 -12 12 -13 4 0 -7 -4 -13 -10 -13 -5
0 -10 18 -10 40 0 45 -16 53 -30 15 -5 -14 -17 -28 -25 -31 -8 -4 -15 -12 -15
-20 0 -29 -18 -12 -25 24 -4 20 -11 42 -17 49 -5 7 -7 17 -3 23 3 5 1 10 -4
10 -6 0 -11 5 -11 10 0 6 7 10 15 10 18 0 20 41 3 58 -9 9 -9 12 0 12 7 0 12
5 12 11 0 5 -4 7 -10 4 -5 -3 -10 3 -10 14 0 12 -4 21 -10 21 -5 0 -10 -7 -10
-15 0 -8 -4 -15 -10 -15 -5 0 -10 -5 -10 -11 0 -6 7 -9 15 -5 11 4 15 -2 15
-22 0 -22 -2 -24 -11 -12 -10 15 -9 1 8 -109 5 -28 3 -33 -10 -28 -13 5 -13 2
0 -24 8 -16 21 -29 28 -29 18 0 30 -19 19 -30 -15 -14 -54 8 -54 30 0 12 -7
28 -15 36 -8 9 -15 25 -15 36 0 18 -2 19 -17 7 -15 -12 -16 -12 -8 6 10 25 11
44 1 73 -5 13 -3 22 3 22 6 0 11 -8 11 -18 0 -10 4 -22 9 -27 5 -6 12 -19 15
-30 3 -11 3 0 0 25 -3 25 -12 64 -20 88 -15 45 -10 92 10 92 6 0 4 5 -4 11
-10 7 -11 12 -4 15 6 3 10 18 8 34 -2 17 0 30 5 30 5 0 7 10 3 22 -5 21 -6 21
-13 2 -7 -18 -8 -18 -8 2 -1 12 6 24 14 28 20 7 19 43 -1 43 -10 0 -14 -7 -11
-19 3 -10 1 -18 -4 -18 -5 0 -6 38 -3 87 6 84 14 126 14 70 0 -15 5 -27 10
-27 6 0 10 -6 10 -14 0 -8 3 -17 8 -19 4 -3 8 31 9 76 1 61 6 83 17 89 9 5 16
21 16 35 0 24 1 25 13 9 11 -15 13 -12 14 23 1 23 5 47 10 54 4 6 6 22 4 34
-3 31 9 49 21 32 6 -9 7 1 3 29 -4 26 -3 42 3 42 6 0 13 -6 15 -12 3 -7 6 3 6
22 1 20 6 41 12 47 6 6 10 36 10 67 0 30 5 58 10 62 5 3 7 14 4 25 -4 10 -2
19 4 19 6 0 4 14 -5 35 -17 41 -20 79 -4 55 8 -12 10 -11 10 8 0 12 -5 22 -11
22 -6 0 -9 6 -6 14 4 9 -7 27 -27 44 -46 41 -55 56 -25 47 34 -10 89 -64 106
-105 9 -19 61 -79 118 -132 63 -60 111 -114 123 -140 11 -24 29 -52 41 -62 12
-11 21 -25 21 -32 0 -17 26 -24 78 -20 24 2 40 1 35 -3 -4 -3 -8 -13 -8 -21 0
-8 -7 -15 -15 -15 -8 0 -16 -8 -18 -17 -5 -24 10 -23 26 2 7 12 17 18 22 15
14 -9 12 -41 -3 -53 -15 -13 -50 12 -61 42 -5 15 -9 17 -18 8 -18 -18 10 -62
44 -69 15 -3 25 -9 22 -14 -3 -5 -1 -9 4 -9 6 0 12 -7 16 -15 3 -8 2 -14 -2
-14 -4 1 -15 1 -24 0 -25 -1 -22 -21 3 -21 16 0 19 -4 14 -20 -4 -13 -2 -20 5
-18 7 2 15 -3 18 -11 3 -9 0 -12 -9 -9 -10 4 -14 -4 -13 -31 0 -20 4 -42 8
-49 5 -8 0 -12 -13 -12 -22 0 -30 -33 -11 -45 7 -4 8 -11 2 -18 -6 -7 -9 -32
-7 -57 2 -25 3 -60 4 -78 1 -30 3 -32 29 -26 32 8 41 15 25 21 -8 3 -5 11 9
25 19 19 19 22 4 30 -14 8 -13 13 13 39 16 16 34 29 40 29 6 0 11 5 11 10 0
14 -13 13 -28 -2 -9 -9 -12 -7 -12 10 0 15 6 22 19 22 11 0 26 6 33 13 21 21
58 39 58 28 0 -5 -4 -12 -8 -15 -10 -6 -9 -52 1 -48 4 1 12 2 19 2 6 0 8 3 5
7 -9 9 12 33 30 33 8 0 13 -6 10 -12 -2 -7 2 -25 9 -40 10 -19 19 -25 34 -21
11 3 20 10 20 15 0 5 -4 6 -10 3 -20 -13 -31 7 -13 23 27 24 56 73 42 70 -6
-2 -14 3 -16 10 -3 7 3 12 14 12 17 1 17 1 1 14 -27 20 -22 28 15 26 45 -3 54
-1 39 9 -9 5 -3 8 17 9 33 1 38 -7 19 -26 -9 -9 -9 -12 1 -12 11 0 11 -3 1
-15 -6 -8 -9 -19 -5 -25 10 -16 35 7 28 26 -3 9 2 14 16 14 12 0 21 -4 21 -10
0 -5 -5 -10 -10 -10 -6 0 -5 -6 2 -14 16 -17 49 1 45 24 -1 11 9 16 42 18 54
4 80 -15 33 -24 -45 -9 -40 -24 8 -24 23 0 40 5 40 11 0 8 4 8 13 1 6 -6 29
-13 50 -17 20 -4 37 -11 37 -17 0 -5 5 -6 10 -3 6 4 18 1 26 -6 8 -7 30 -14
47 -16 18 -2 37 -9 42 -16 6 -7 17 -11 27 -9 17 3 31 -24 26 -49 -2 -9 9 -15
32 -17 34 -3 38 0 83 70 63 96 175 325 227 465 123 330 174 622 174 993 0 124
-6 270 -13 325 -81 640 -342 1190 -781 1648 -450 470 -1037 766 -1689 852
-143 19 -460 27 -600 14z m176 -631 c-3 -7 -5 -2 -5 12 0 14 2 19 5 13 2 -7 2
-19 0 -25z m274 -1 c-10 -9 -11 -8 -5 6 3 10 9 15 12 12 3 -3 0 -11 -7 -18z
m-48 -14 c-4 -10 -16 -26 -28 -35 -32 -28 -7 -21 31 8 29 22 33 24 28 8 -4
-11 -14 -27 -21 -36 -13 -15 -13 -16 6 -11 12 3 21 10 21 16 0 5 8 3 18 -5 9
-9 24 -18 32 -21 12 -4 11 -6 -2 -6 -10 -1 -18 -6 -18 -12 0 -11 37 -3 58 13
16 13 16 -4 0 -20 -9 -9 -3 -12 29 -12 23 0 45 5 48 10 4 6 11 7 17 4 14 -9
-32 -34 -49 -27 -7 3 -13 0 -13 -6 0 -6 14 -11 31 -11 19 0 28 -4 24 -11 -4
-6 -13 -8 -20 -5 -7 2 -21 -1 -30 -8 -15 -11 -15 -12 2 -13 10 -1 28 -4 41 -8
16 -6 22 -3 22 9 0 9 8 16 20 16 11 0 20 -4 20 -10 0 -5 -3 -9 -7 -9 -22 4
-25 -3 -7 -15 13 -10 23 -11 31 -4 7 6 21 7 30 3 17 -7 16 -8 -2 -15 -15 -7
-16 -9 -4 -9 9 -1 22 -8 29 -16 7 -8 16 -15 21 -15 5 0 6 7 3 15 -4 8 -1 15 6
15 8 0 10 -9 6 -26 -5 -17 -3 -23 4 -19 5 3 10 1 10 -4 0 -6 5 -11 11 -11 7 0
20 -10 30 -22 16 -17 19 -18 19 -5 0 10 5 17 10 17 6 0 10 -4 10 -8 0 -9 95
-82 106 -82 4 0 16 -8 27 -17 20 -17 20 -17 14 1 -7 18 -6 18 20 1 51 -32 73
-58 92 -109 10 -28 17 -64 14 -81 -4 -29 19 -67 46 -76 6 -2 12 -16 13 -31 1
-16 6 -28 10 -28 4 0 8 -6 8 -14 0 -7 7 -19 15 -26 12 -10 13 -15 3 -21 -9 -6
-8 -13 7 -30 l20 -22 -23 6 c-23 5 -23 5 -6 -21 10 -15 24 -33 31 -40 7 -7 13
-21 13 -30 -1 -15 -3 -14 -18 3 -10 11 -24 21 -32 23 -11 3 -10 -1 3 -16 9
-10 17 -24 17 -30 0 -7 4 -12 9 -12 5 0 12 -16 15 -36 4 -19 10 -43 13 -52 2
-9 -9 10 -27 43 -17 33 -35 62 -40 63 -6 2 -10 10 -10 17 0 22 -41 127 -48
121 -3 -3 0 -23 8 -45 8 -26 9 -44 2 -57 -13 -25 -2 -49 22 -49 11 0 22 -7 24
-15 4 -13 3 -13 -11 -2 -13 11 -16 10 -22 -8 -4 -12 -1 -30 8 -43 13 -21 18
-45 37 -189 27 -196 16 -477 -18 -471 -6 2 -16 -12 -21 -30 l-9 -32 -2 30 c-2
29 -2 29 -15 -10 -8 -22 -14 -59 -14 -83 -1 -24 -5 -41 -10 -38 -13 8 -23 -23
-15 -47 3 -11 2 -17 -3 -14 -5 3 -10 -19 -10 -50 -1 -31 -5 -59 -10 -62 -5 -3
-10 -37 -10 -76 -1 -85 -10 -122 -35 -147 -11 -11 -17 -26 -14 -35 4 -9 -1
-17 -14 -20 -11 -3 -20 -12 -20 -20 0 -13 3 -13 15 -3 19 15 19 1 1 -23 -8
-10 -16 -13 -18 -7 -2 7 -10 5 -23 -4 -18 -14 -18 -15 -2 -16 19 0 22 -17 7
-40 -8 -13 -10 -12 -10 3 0 9 -4 17 -10 17 -5 0 -10 -11 -10 -25 0 -18 -4 -23
-16 -18 -13 5 -15 2 -9 -16 5 -17 2 -24 -14 -28 -12 -3 -25 -19 -31 -39 -9
-28 -16 -34 -31 -29 -10 4 -19 2 -19 -4 0 -5 8 -12 18 -14 13 -4 12 -5 -5 -7
-39 -4 -41 -5 -49 -12 -4 -5 1 -8 12 -9 16 0 16 -2 -4 -12 -20 -9 -26 -8 -33
6 -12 21 -33 22 -63 2 -21 -14 -25 -14 -50 6 -14 11 -23 25 -20 31 4 6 -1 6
-13 -1 -11 -6 -24 -7 -28 -3 -5 4 -5 1 0 -7 4 -8 2 -17 -6 -23 -11 -8 -10 -9
4 -4 19 6 20 5 11 -17 -3 -8 -13 -13 -23 -10 -9 2 -23 -3 -30 -11 -11 -13 -10
-17 5 -23 17 -6 54 -39 54 -47 0 -2 -9 -6 -20 -9 -28 -7 -25 -27 5 -27 16 0
25 -6 25 -15 0 -8 8 -15 17 -15 26 0 3 -18 -30 -24 -16 -3 -35 -10 -43 -17
-11 -9 -17 -9 -29 1 -10 9 -15 9 -15 1 0 -6 5 -11 10 -11 6 0 10 -4 10 -10 0
-5 -9 -10 -20 -10 -11 0 -20 -4 -20 -9 0 -13 -43 -10 -53 4 -5 6 -14 2 -26
-12 -11 -13 -23 -23 -29 -23 -5 0 -23 -7 -41 -16 -23 -11 -50 -15 -92 -12 -34
2 -59 0 -59 -5 0 -6 -8 -3 -18 6 -10 10 -25 17 -33 17 -19 1 -50 25 -42 33 3
4 -8 12 -25 18 -17 6 -30 15 -29 21 4 18 -51 28 -79 13 -19 -10 -35 -10 -66
-2 -31 8 -43 7 -46 -1 -2 -7 -8 -10 -13 -6 -14 8 -11 24 5 24 10 0 14 12 13
40 -1 22 -5 40 -9 40 -5 0 -8 11 -8 25 0 14 5 25 10 25 6 0 10 5 10 11 0 5 -4
7 -10 4 -5 -3 -10 -1 -10 4 0 6 -5 11 -11 11 -5 0 -7 -4 -4 -10 3 -5 1 -10 -4
-10 -6 0 -11 10 -11 23 -1 21 -1 21 -15 3 -8 -11 -18 -17 -21 -13 -4 4 3 15
15 26 14 13 18 22 11 26 -8 5 -6 13 6 26 13 14 14 22 5 32 -14 18 -4 27 30 27
38 0 59 -9 59 -26 0 -17 27 -19 32 -1 3 6 16 13 29 14 109 7 134 12 137 27 2
9 7 14 11 12 4 -3 8 4 8 15 2 21 -12 26 -21 7 -3 -9 -11 -6 -24 10 -22 24 -47
30 -39 9 4 -11 -3 -10 -30 2 -23 10 -29 17 -19 19 25 5 19 17 -9 20 -14 1 -25
-2 -25 -7 0 -15 -30 -22 -50 -11 -26 14 -36 44 -12 38 15 -4 18 -1 14 18 -2
13 1 24 7 24 6 0 8 7 4 17 -6 14 -1 15 33 9 21 -4 109 -11 194 -15 85 -4 162
-11 170 -16 8 -6 51 -10 95 -10 75 0 81 2 108 30 l29 30 -43 2 c-63 4 -190 24
-208 33 -29 15 -173 42 -221 42 -39 0 -49 4 -53 19 -6 23 7 32 33 24 27 -8
117 42 102 57 -11 11 15 48 34 48 6 0 19 9 29 20 10 11 26 20 36 20 10 0 31
17 48 37 30 36 35 57 8 35 -15 -12 -99 -3 -149 17 -16 6 -41 8 -56 5 -33 -7
-117 28 -145 60 -16 18 -16 21 -4 24 10 2 18 21 22 55 4 29 12 60 17 70 11 22
16 137 5 144 -4 2 -4 9 -1 15 9 14 12 79 5 93 -11 22 -12 95 -1 95 6 0 9 4 6
9 -3 5 1 27 9 50 8 23 11 41 7 41 -4 0 1 5 11 11 9 5 17 19 17 30 0 12 10 23
25 29 14 5 25 16 25 23 0 24 -34 47 -63 42 -15 -3 -37 1 -50 10 -13 8 -27 12
-30 8 -9 -8 -87 27 -87 39 0 5 -5 6 -10 3 -6 -4 -17 -1 -25 5 -8 7 -20 10 -27
8 -7 -3 -21 5 -30 16 -17 20 -19 20 -29 3 -13 -22 -49 -6 -49 23 0 19 -12 24
-48 23 -7 -1 -11 2 -8 5 3 3 1 12 -6 19 -9 11 -9 17 3 24 11 8 10 9 -6 7 -12
-2 -19 -10 -17 -21 2 -9 -2 -17 -8 -17 -5 0 -10 5 -10 10 0 6 -10 11 -22 11
-23 2 -23 2 -1 6 12 2 24 11 27 20 7 18 -14 83 -27 83 -4 0 -5 5 -2 11 4 6 13
8 21 5 8 -3 11 0 7 10 -3 7 -11 14 -19 14 -26 0 -13 27 21 46 11 6 21 21 23
33 2 11 8 21 13 21 6 0 7 5 3 11 -4 7 3 10 17 9 41 -4 47 -1 47 25 0 16 -6 25
-17 25 -9 0 -21 11 -28 25 -9 21 -8 27 5 35 12 7 13 9 3 10 -11 0 -11 3 -1 15
7 9 10 19 6 22 -4 4 -11 1 -16 -6 -12 -20 -39 -6 -33 17 3 14 11 18 24 15 13
-4 19 0 19 10 0 20 -16 31 -25 17 -10 -17 -35 -11 -34 8 0 10 3 12 6 5 7 -18
23 -16 23 1 0 8 -7 16 -16 18 -13 3 -13 5 1 23 12 16 14 17 9 3 -3 -10 -1 -18
5 -18 16 0 13 25 -4 40 -20 17 -19 30 3 30 16 0 28 15 51 64 2 5 -4 6 -13 3
-12 -5 -16 -1 -16 14 0 14 -5 19 -14 16 -10 -4 -13 -1 -9 9 3 7 12 14 19 14
20 0 29 27 14 45 -10 13 -9 15 12 15 13 0 29 5 36 12 6 6 25 13 41 14 46 6 55
8 64 19 4 6 11 4 17 -5 7 -11 10 -11 10 -2 0 10 14 12 55 9 30 -2 52 0 49 4
-6 10 61 23 74 15 6 -3 13 0 15 6 4 10 8 9 16 -2 10 -13 12 -13 21 0 14 22 7
45 -13 42 -9 -2 -17 2 -17 8 0 5 9 10 20 10 11 0 20 -4 20 -10 0 -5 5 -10 10
-10 6 0 10 7 10 15 0 8 -4 15 -10 15 -12 0 -13 37 -1 44 12 8 41 -4 41 -16 0
-6 -10 -8 -21 -5 -17 5 -19 3 -10 -6 14 -14 71 -19 71 -6 0 5 -6 10 -12 10 -7
1 1 4 17 8 24 5 32 3 38 -14 8 -20 9 -20 23 -1 8 11 14 17 14 13 0 -4 9 -3 20
3 16 9 20 8 20 -5 0 -8 -7 -15 -15 -15 -8 0 -15 -7 -15 -15 0 -8 6 -15 13 -15
16 0 42 41 38 63 -2 13 5 17 33 17 30 0 34 -3 29 -17z m87 7 c0 -5 -5 -10 -11
-10 -5 0 -7 5 -4 10 3 6 8 10 11 10 2 0 4 -4 4 -10z m-825 -320 c3 -6 -1 -7
-9 -4 -18 7 -21 14 -7 14 6 0 13 -4 16 -10z m-18 -306 c-3 -3 -12 -4 -19 -1
-8 3 -5 6 6 6 11 1 17 -2 13 -5z m0 -36 c-3 -8 -6 -5 -6 6 -1 11 2 17 5 13 3
-3 4 -12 1 -19z m-7 -70 c0 -6 -3 -8 -7 -5 -3 4 -12 2 -20 -4 -10 -9 -13 -8
-13 4 0 16 19 28 33 20 4 -2 7 -9 7 -15z m1565 -258 c3 -5 1 -10 -4 -10 -6 0
-11 5 -11 10 0 6 2 10 4 10 3 0 8 -4 11 -10z m55 -42 c0 -6 -7 -5 -15 2 -8 7
-15 17 -15 22 0 6 7 5 15 -2 8 -7 15 -17 15 -22z m-1704 -112 c19 -20 18 -21
-16 -24 -24 -2 -30 2 -30 18 0 23 25 27 46 6z m64 -12 c0 -2 -7 -4 -15 -4 -8
0 -15 4 -15 10 0 5 7 7 15 4 8 -4 15 -8 15 -10z m430 -10 c0 -8 -4 -12 -10 -9
-5 3 -10 10 -10 16 0 5 5 9 10 9 6 0 10 -7 10 -16z m-330 -154 c0 -5 -7 -10
-16 -10 -8 0 -12 5 -9 10 3 6 10 10 16 10 5 0 9 -4 9 -10z m68 -39 c2 -6 7 -9
12 -6 4 2 8 -7 8 -20 0 -14 -6 -26 -12 -26 -26 -3 -64 -7 -109 -12 -26 -3 -50
-6 -52 -9 -7 -7 -95 4 -95 13 0 5 3 8 8 7 8 -1 30 7 77 27 l29 14 -29 7 c-26
6 -27 8 -10 16 27 11 169 2 173 -11z m54 -9 c-7 -5 -10 -16 -6 -25 3 -10 1
-17 -5 -17 -6 0 -11 11 -11 25 0 17 5 25 18 25 12 0 14 -2 4 -8z m1624 -52
c35 -13 73 -65 81 -113 11 -73 -10 -129 -159 -405 -19 -35 -28 -67 -28 -97 0
-60 -12 -88 -57 -129 -42 -40 -71 -44 -114 -19 -33 20 -34 29 -15 121 8 37 25
126 37 197 23 136 33 162 50 133 5 -10 18 -22 28 -28 17 -8 19 -5 18 28 -1 20
2 64 7 97 6 48 14 64 36 83 16 12 35 20 43 16 20 -7 37 -49 44 -106 6 -52 25
-78 40 -56 12 19 32 77 43 126 9 39 8 46 -17 77 -33 41 -54 43 -108 10 -47
-28 -65 -31 -65 -9 0 8 5 12 10 9 6 -3 10 1 10 10 0 9 5 13 10 10 6 -3 22 7
36 24 29 35 30 35 70 21z m-1597 -39 c23 -23 22 -69 -2 -82 -11 -6 -15 -19
-12 -39 2 -17 -2 -34 -11 -41 -8 -6 -14 -17 -14 -23 0 -12 -93 -113 -121 -131
-63 -40 -76 -52 -73 -67 2 -13 -4 -15 -32 -11 -29 5 -34 3 -40 -21 -8 -32 -9
-32 -50 -1 -18 14 -44 25 -58 25 -19 0 -26 5 -26 20 0 11 -4 20 -10 20 -5 0
-12 11 -16 25 -8 33 -33 53 -44 36 -6 -10 -10 -8 -15 9 -10 32 3 90 20 90 17
0 19 12 5 26 -7 7 -8 19 0 38 8 22 7 28 -6 33 -14 5 -13 9 7 24 13 10 30 19
37 19 7 0 10 5 7 10 -3 6 1 10 9 10 9 0 16 -4 16 -9 0 -15 170 6 283 35 32 8
61 13 65 11 4 -3 16 -1 27 4 30 11 33 11 54 -10z m-479 -310 c0 -6 -4 -13 -10
-16 -5 -3 -10 1 -10 9 0 9 5 16 10 16 6 0 10 -4 10 -9z m210 -101 c0 -5 -7
-10 -16 -10 -8 0 -12 5 -9 10 3 6 10 10 16 10 5 0 9 -4 9 -10z m-140 -268 c0
-12 3 -13 11 -5 15 15 63 -34 73 -72 6 -22 3 -28 -14 -32 -15 -4 -18 -9 -10
-18 12 -15 -3 -30 -19 -20 -5 3 -12 1 -15 -4 -10 -15 -66 19 -76 45 -17 44 10
137 36 127 8 -3 14 -12 14 -21z m-83 -59 c-11 -10 -27 8 -27 30 l0 21 16 -22
c9 -13 14 -26 11 -29z m753 -63 c0 -5 7 -7 15 -4 8 4 15 1 15 -5 0 -16 -25
-13 -40 4 -9 10 -9 15 -1 15 6 0 11 -4 11 -10z m-224 -87 c-10 -10 -19 5 -10
18 6 11 8 11 12 0 2 -7 1 -15 -2 -18z m-416 -3 c0 -5 -5 -10 -11 -10 -5 0 -7
5 -4 10 3 6 8 10 11 10 2 0 4 -4 4 -10z m1165 -320 c3 -5 1 -10 -4 -10 -6 0
-11 5 -11 10 0 6 2 10 4 10 3 0 8 -4 11 -10z m-805 -80 c0 -5 -4 -10 -10 -10
-5 0 -10 5 -10 10 0 6 5 10 10 10 6 0 10 -4 10 -10z m1110 -12 c0 -17 3 -19 9
-9 5 8 11 9 15 3 3 -5 -1 -15 -9 -22 -8 -7 -12 -16 -9 -21 12 -19 5 -152 -8
-160 -10 -7 -10 -9 2 -9 9 0 11 -3 5 -8 -17 -12 -18 -42 -1 -36 16 6 97 -34
139 -69 28 -24 28 -24 7 -30 -28 -7 -48 1 -60 23 -5 10 -23 21 -40 25 -16 4
-32 11 -35 16 -10 15 -21 10 -21 -10 0 -11 3 -18 7 -15 11 6 89 -55 89 -71 0
-8 5 -15 10 -15 17 0 11 -88 -10 -163 -53 -184 -89 -280 -149 -387 -25 -47
-53 -97 -60 -112 -8 -16 -19 -28 -24 -28 -5 0 -7 -10 -4 -23 4 -12 2 -49 -2
-82 -7 -46 -5 -76 8 -127 18 -72 33 -101 25 -48 -3 17 -1 37 5 44 6 7 8 15 6
18 -3 3 -10 20 -15 38 -11 40 2 30 28 -20 14 -27 23 -33 56 -36 47 -4 51 -7
31 -28 -17 -17 -12 -80 8 -93 6 -4 8 0 5 8 -24 64 -18 84 8 24 8 -19 21 -35
29 -35 8 0 15 -7 15 -15 0 -8 -9 -15 -20 -15 -11 0 -20 5 -20 10 0 6 -4 10
-10 10 -5 0 -7 -7 -4 -15 7 -17 3 -18 -20 -9 -9 3 -13 11 -10 16 4 6 -2 5 -14
-1 -12 -6 -23 -7 -26 -2 -3 5 -15 7 -25 4 -19 -5 -19 -6 0 -59 20 -57 26 -100
10 -75 -6 9 -10 10 -16 2 -5 -9 -10 -9 -21 0 -8 6 -14 7 -14 2 0 -5 -16 -15
-35 -22 -28 -10 -39 -10 -50 -1 -12 10 -15 9 -15 -3 0 -8 -7 -17 -15 -21 -8
-3 -15 0 -15 7 0 7 -3 8 -8 2 -8 -12 -44 -29 -91 -44 -46 -15 -61 -14 -61 4 0
8 7 15 15 15 8 0 15 5 15 10 0 6 -7 13 -15 16 -8 4 -15 12 -15 18 0 7 -11 19
-25 26 -30 16 -32 30 -5 30 24 0 26 13 4 35 -14 13 -19 14 -33 3 -9 -8 -29
-20 -44 -28 -50 -25 -107 -80 -107 -103 1 -20 2 -21 14 -4 19 24 40 21 57 -9
7 -14 26 -37 42 -50 16 -13 24 -24 18 -24 -5 0 -23 12 -38 26 -15 14 -36 33
-46 42 -16 14 -19 15 -27 2 -5 -8 -10 -19 -10 -25 0 -5 4 -4 9 3 6 11 13 7 29
-16 12 -16 19 -32 15 -36 -3 -3 2 -6 12 -6 14 0 16 -3 8 -11 -14 -14 -47 -4
-38 11 4 7 -3 7 -20 0 -15 -6 -24 -6 -20 -1 3 5 2 12 -3 15 -5 3 -7 19 -4 36
3 19 0 30 -7 30 -7 0 -9 6 -5 13 4 6 -3 2 -15 -10 -19 -20 -20 -26 -10 -45 11
-21 11 -22 -4 -9 -15 12 -23 8 -65 -35 -57 -58 -94 -109 -85 -118 3 -3 0 -6
-8 -6 -8 0 -25 -16 -38 -35 -13 -19 -29 -35 -37 -35 -8 0 -11 -8 -9 -22 3 -12
1 -17 -3 -12 -28 32 -60 82 -66 102 -4 12 -11 22 -15 22 -4 0 -20 23 -36 50
-16 28 -33 50 -37 50 -4 0 -8 6 -8 14 0 7 -10 25 -22 39 -13 14 -36 42 -52 61
-15 20 -33 33 -39 29 -6 -3 -7 -1 -3 5 4 7 2 12 -4 12 -6 0 -9 4 -6 9 3 5 -13
19 -37 30 -23 12 -34 20 -24 17 10 -4 15 -2 12 4 -3 6 -13 10 -21 10 -8 0 -14
6 -14 13 0 6 -14 18 -31 26 -23 10 -28 16 -18 22 11 7 10 9 -4 9 -10 0 -21 8
-24 17 -4 10 -17 26 -29 36 -13 9 -32 33 -44 52 -12 19 -24 34 -28 33 -13 -3
-92 34 -92 43 0 5 23 0 50 -11 28 -11 53 -20 55 -20 3 0 12 -14 21 -31 22 -44
64 -80 84 -74 11 3 20 -2 26 -16 9 -20 11 -20 26 -6 14 14 18 14 28 2 7 -8 28
-13 53 -12 29 1 41 -2 39 -10 -1 -7 2 -13 8 -13 5 0 10 9 10 20 0 11 5 20 10
20 6 0 10 -7 10 -15 0 -8 4 -15 9 -15 5 0 17 -7 25 -16 9 -9 16 -11 16 -4 0 6
4 9 9 5 6 -3 14 3 20 12 9 15 10 15 11 2 0 -8 6 -24 14 -34 12 -17 16 -17 30
-6 14 12 16 11 11 -5 -4 -13 -2 -12 6 4 7 12 15 22 19 22 3 0 19 -18 36 -40
31 -42 44 -49 44 -25 0 8 -3 15 -7 15 -5 0 -8 23 -8 50 -1 55 3 59 30 30 10
-11 22 -17 26 -14 5 3 2 12 -6 20 -8 9 -15 21 -15 27 0 7 5 4 11 -5 13 -23 30
-23 22 0 -3 10 5 5 19 -12 15 -16 28 -24 32 -18 3 6 -8 22 -25 36 -17 15 -29
30 -25 33 3 3 12 0 21 -7 12 -10 15 -10 15 4 0 13 5 16 23 11 12 -4 27 -14 34
-22 17 -22 24 1 7 25 -8 12 -25 22 -37 23 l-22 0 23 11 c12 6 22 17 22 25 0
11 4 11 22 2 21 -11 21 -12 3 -25 -18 -14 -18 -14 2 -14 13 0 23 8 26 21 4 14
11 20 21 16 10 -4 13 -1 9 9 -3 8 -8 13 -10 10 -10 -10 -33 23 -27 38 3 9 1
23 -6 31 -10 12 -10 18 1 32 13 15 11 16 -11 10 -25 -6 -70 17 -57 29 4 4 12
2 19 -4 10 -7 21 -4 42 15 26 22 27 27 16 48 -10 19 -19 23 -40 19 -20 -4 -27
-2 -27 10 0 9 5 15 11 14 18 -2 72 24 59 29 -6 2 -29 0 -49 -6 -21 -6 -40 -9
-42 -6 -7 7 27 37 36 31 5 -3 18 2 28 10 17 14 17 15 2 10 -10 -3 -28 -2 -39
3 -21 7 -21 8 6 29 l28 22 -24 0 -24 1 25 14 c14 8 19 14 13 15 -7 0 -13 6
-13 14 0 8 -6 16 -12 19 -14 5 9 1 31 -4 7 -2 15 1 18 7 2 7 -8 15 -23 18
l-27 7 24 16 c13 9 26 18 28 19 2 2 -2 10 -9 19 -10 12 -10 15 5 15 11 0 15 5
11 15 -3 9 0 15 9 15 8 0 15 6 15 14 0 7 9 25 20 39 21 26 14 42 -14 31 -9 -3
-16 -1 -16 5 0 6 11 13 25 17 14 3 25 12 25 20 0 8 7 14 15 14 8 0 14 4 12 8
-1 4 13 22 30 39 18 18 28 35 23 38 -16 10 -11 19 20 37 17 9 30 13 30 8 0 -6
7 -10 15 -10 9 0 12 6 9 15 -4 10 0 15 15 15 12 0 21 6 21 16 0 11 6 14 21 9
17 -6 20 -4 15 12 -3 10 -1 25 4 33 8 12 10 10 10 -10 l1 -25 27 31 c15 17 37
35 50 39 15 4 21 12 18 21 -3 9 15 35 45 67 45 46 55 62 58 90 1 4 6 7 11 7 6
0 31 21 57 46 39 37 45 47 33 56 -12 8 -11 9 3 4 22 -7 52 13 52 34 0 8 6 14
13 13 6 -2 12 6 12 17 0 11 5 20 10 20 6 0 10 -10 10 -22z m170 -394 c0 -8 -4
-12 -10 -9 -5 3 -10 10 -10 16 0 5 5 9 10 9 6 0 10 -7 10 -16z m464 -90 c9 -3
16 -10 16 -14 0 -10 -38 -1 -46 11 -6 10 7 12 30 3z m136 -70 c0 -2 -7 -4 -15
-4 -8 0 -15 4 -15 10 0 5 7 7 15 4 8 -4 15 -8 15 -10z m-1370 -4 c0 -5 -5 -10
-11 -10 -5 0 -7 5 -4 10 3 6 8 10 11 10 2 0 4 -4 4 -10z m1345 -60 c-3 -5 -10
-10 -16 -10 -5 0 -9 5 -9 10 0 6 7 10 16 10 8 0 12 -4 9 -10z m292 4 c-3 -3
-12 -4 -19 -1 -8 3 -5 6 6 6 11 1 17 -2 13 -5z m-1730 -20 c-3 -3 -12 -4 -19
-1 -8 3 -5 6 6 6 11 1 17 -2 13 -5z m1588 -4 c3 -5 -1 -10 -9 -10 -9 0 -16 5
-16 10 0 6 4 10 9 10 6 0 13 -4 16 -10z m-1582 -36 c24 -9 21 -17 -10 -31 -27
-13 -53 -17 -53 -9 0 2 -3 13 -6 23 -5 14 -4 15 4 4 6 -9 17 -11 28 -6 13 5
15 9 7 12 -7 3 -13 9 -13 15 0 5 6 7 13 4 6 -3 20 -9 30 -12z m1486 -15 c-8
-15 -8 -19 0 -15 6 4 11 1 11 -7 0 -10 -7 -13 -20 -10 -24 6 -25 16 -4 37 21
22 27 20 13 -5z m142 -13 c5 3 7 10 4 15 -4 5 1 9 9 9 8 0 18 -4 21 -10 3 -5
0 -10 -9 -10 -8 0 -16 -4 -18 -9 -5 -16 -61 -17 -66 -2 -3 10 0 12 12 8 11 -4
19 -1 24 11 6 16 7 16 10 -1 2 -9 8 -15 13 -11z m-81 4 c0 -5 -5 -10 -11 -10
-5 0 -7 5 -4 10 3 6 8 10 11 10 2 0 4 -4 4 -10z m275 -30 c3 -5 1 -10 -4 -10
-6 0 -11 5 -11 10 0 6 2 10 4 10 3 0 8 -4 11 -10z m-150 -30 c3 -5 1 -10 -4
-10 -6 0 -11 5 -11 10 0 6 2 10 4 10 3 0 8 -4 11 -10z m-152 -20 c-4 -14 -14
-20 -35 -20 -17 0 -27 4 -23 10 3 6 15 10 25 10 10 0 22 5 25 10 10 16 14 12
8 -10z m547 -20 c0 -5 -4 -10 -10 -10 -5 0 -10 5 -10 10 0 6 5 10 10 10 6 0
10 -4 10 -10z m-400 -10 c0 -5 -4 -10 -10 -10 -5 0 -10 5 -10 10 0 6 5 10 10
10 6 0 10 -4 10 -10z m615 0 c3 -5 1 -10 -4 -10 -6 0 -11 5 -11 10 0 6 2 10 4
10 3 0 8 -4 11 -10z m-868 -22 c-3 -8 -6 -5 -6 6 -1 11 2 17 5 13 3 -3 4 -12
1 -19z m60 6 c-3 -3 -12 -4 -19 -1 -8 3 -5 6 6 6 11 1 17 -2 13 -5z m54 -17
c-10 -9 -11 -8 -5 6 3 10 9 15 12 12 3 -3 0 -11 -7 -18z m794 13 c3 -5 1 -10
-4 -10 -6 0 -11 5 -11 10 0 6 2 10 4 10 3 0 8 -4 11 -10z m85 -52 c0 -4 -4 -8
-10 -8 -5 0 -10 5 -10 10 0 6 -9 10 -19 10 -10 0 -21 7 -24 15 -5 12 0 12 28
-2 19 -9 35 -20 35 -25z m-720 26 c0 -3 -7 -12 -15 -21 -20 -19 -32 -10 -14
11 14 15 29 21 29 10z m-250 -79 c-7 -8 -17 -15 -22 -15 -6 0 -5 7 2 15 7 8
17 15 22 15 6 0 5 -7 -2 -15z m897 -11 c-3 -3 -12 -4 -19 -1 -8 3 -5 6 6 6 11
1 17 -2 13 -5z m-1650 -46 c-3 -8 -6 -5 -6 6 -1 11 2 17 5 13 3 -3 4 -12 1
-19z m-18 -85 c-7 -7 -6 -13 0 -17 6 -4 7 -34 4 -76 -5 -56 -3 -70 8 -70 12 0
12 -2 0 -9 -8 -5 -12 -18 -8 -30 3 -12 1 -21 -4 -21 -5 0 -9 5 -9 12 0 9 -3 9
-12 0 -7 -7 -20 -12 -30 -12 -14 0 -18 8 -18 38 0 27 3 33 10 22 6 -9 10 -11
10 -3 0 7 6 10 13 7 8 -3 13 4 14 17 1 14 -3 19 -13 15 -8 -3 -14 -1 -14 4 0
6 5 10 10 10 6 0 10 29 10 68 0 37 3 78 7 92 l7 25 12 -30 c8 -19 9 -34 3 -42z
m938 0 c-4 -3 0 -11 8 -17 13 -9 11 -11 -10 -12 -14 -1 -25 1 -25 5 0 8 21 31
29 31 2 0 1 -3 -2 -7z m-987 -44 c0 -6 -4 -7 -10 -4 -5 3 -10 11 -10 16 0 6 5
7 10 4 6 -3 10 -11 10 -16z m-645 0 c10 -14 1 -21 -19 -13 -9 3 -13 10 -10 15
7 12 21 11 29 -2z m1495 1 c0 -5 -4 -10 -10 -10 -5 0 -10 5 -10 10 0 6 5 10
10 10 6 0 10 -4 10 -10z m80 -27 c0 -18 -37 -16 -43 1 -4 10 2 13 19 12 13 0
24 -7 24 -13z m-946 -35 c4 -22 3 -38 -2 -38 -12 0 -22 48 -15 67 7 18 9 15
17 -29z m881 32 c3 -5 -1 -10 -9 -10 -9 0 -16 5 -16 10 0 6 4 10 9 10 6 0 13
-4 16 -10z m140 -10 c3 -5 -1 -10 -10 -10 -9 0 -13 5 -10 10 3 6 8 10 10 10 2
0 7 -4 10 -10z m-1056 -75 c0 -5 -4 -3 -9 5 -5 8 -9 22 -9 30 0 16 17 -16 18
-35z m938 0 c0 -8 -6 -15 -12 -15 -6 0 -12 7 -12 15 0 8 6 15 12 15 6 0 12 -7
12 -15z m16 -38 c9 -23 -6 -34 -52 -41 -25 -3 -48 -11 -52 -17 -5 -8 -9 -8
-14 1 -6 9 -9 9 -15 -1 -5 -7 -18 -14 -29 -16 -11 -1 -25 -4 -32 -5 -6 -2 -13
13 -15 35 -5 38 5 47 28 24 11 -12 47 -15 68 -7 3 1 14 2 25 1 12 -1 32 7 44
19 28 23 37 25 44 7z m-2425 -16 c3 -8 -1 -12 -9 -9 -7 2 -15 10 -17 17 -3 8
1 12 9 9 7 -2 15 -10 17 -17z m537 -31 c-3 -5 -14 -10 -23 -9 -14 0 -13 2 3 9
27 11 27 11 20 0z m1405 -32 c0 -18 -2 -20 -9 -8 -6 8 -7 18 -5 22 9 14 14 9
14 -14z m-1840 -13 c0 -22 29 -49 68 -65 18 -7 31 -14 29 -16 -2 -3 -20 2 -40
11 -47 20 -99 85 -67 85 6 0 10 -7 10 -15z m460 1 c0 -8 -4 -17 -9 -20 -5 -3
-7 -15 -4 -25 3 -13 -2 -23 -16 -30 -20 -11 -23 -10 -19 7 1 4 -11 9 -27 12
-15 3 -30 10 -32 17 -3 7 3 9 16 6 15 -4 21 -1 21 11 0 9 5 16 10 16 6 0 10
-9 10 -19 0 -11 4 -22 9 -25 4 -3 6 6 3 20 -3 16 1 30 9 35 20 13 29 11 29 -5z
m74 -17 c-9 -16 8 -37 27 -32 11 3 19 0 19 -7 0 -6 -9 -14 -20 -17 -11 -3 -20
-11 -20 -18 0 -6 9 -20 20 -30 20 -18 26 -35 13 -35 -15 1 -45 52 -45 76 0 30
-18 32 -19 2 0 -13 -3 -18 -5 -11 -3 7 -11 10 -19 7 -16 -7 -29 12 -15 21 8 5
7 11 -1 22 -10 12 -10 16 2 24 16 10 70 8 63 -2z m1606 2 c0 -6 -4 -13 -10
-16 -5 -3 -10 -20 -10 -36 0 -30 -37 -115 -46 -106 -3 2 2 24 10 48 9 24 16
54 16 67 0 23 18 51 33 52 4 0 7 -4 7 -9z m-62 -23 c-2 -13 -9 -22 -16 -20 -7
1 -12 -9 -12 -25 0 -22 -2 -25 -10 -13 -13 20 -13 60 1 60 5 0 7 5 4 10 -3 6
3 10 15 10 17 0 21 -5 18 -22z m102 -28 c0 -5 -7 -10 -16 -10 -8 0 -12 5 -9
10 3 6 10 10 16 10 5 0 9 -4 9 -10z m-255 -54 c38 -10 83 -25 100 -32 l30 -14
-35 5 c-19 4 -48 9 -65 12 -16 3 -40 6 -52 7 -13 0 -23 7 -23 14 0 8 -5 10
-12 5 -19 -11 -37 -12 -43 -3 -3 5 -25 7 -50 5 -25 -2 -47 1 -51 6 -3 5 -9 7
-14 4 -4 -2 -24 -7 -44 -10 -27 -5 -36 -3 -36 8 0 22 203 17 295 -7z m-1450 4
c3 -5 1 -10 -4 -10 -6 0 -11 5 -11 10 0 6 2 10 4 10 3 0 8 -4 11 -10z m1885
-71 c0 -4 -7 -6 -15 -3 -8 4 -15 2 -15 -4 0 -11 -128 -38 -137 -28 -4 3 4 6
16 6 12 0 24 7 28 16 4 11 14 14 33 10 16 -3 35 1 46 8 18 14 44 11 44 -5z
m83 -28 c-14 -12 -31 -17 -44 -14 -19 5 -18 7 12 18 49 18 57 17 32 -4z
m-1440 -30 c-5 -3 -12 -14 -16 -23 -4 -13 -2 -15 11 -11 15 6 15 5 3 -10 -12
-15 -11 -17 5 -17 14 0 15 -3 6 -12 -6 -6 -13 -10 -16 -7 -11 12 -45 93 -41
97 3 3 5 0 5 -6 0 -7 5 -12 11 -12 6 0 9 7 5 15 -5 13 -2 14 16 4 11 -6 16
-14 11 -18z m1147 9 c-8 -5 -19 -10 -25 -10 -5 0 -3 5 5 10 8 5 20 10 25 10 6
0 3 -5 -5 -10z m175 -30 c-3 -5 -16 -10 -28 -9 -21 0 -21 1 -2 9 28 12 37 12
30 0z m-300 -19 c-3 -6 -14 -11 -23 -11 -13 0 -13 2 4 14 21 15 30 14 19 -3z
m-970 -1 c3 -5 2 -10 -4 -10 -5 0 -13 5 -16 10 -3 6 -2 10 4 10 5 0 13 -4 16
-10z m915 -18 c0 -9 -88 -31 -96 -23 -3 3 12 11 33 17 47 15 63 16 63 6z m185
-2 c-3 -5 -11 -10 -16 -10 -6 0 -7 5 -4 10 3 6 11 10 16 10 6 0 7 -4 4 -10z
m-145 -4 c0 -3 -4 -8 -10 -11 -5 -3 -10 -1 -10 4 0 6 5 11 10 11 6 0 10 -2 10
-4z m110 -15 c0 -12 -29 -23 -41 -15 -5 3 -9 0 -9 -6 0 -6 -5 -8 -11 -4 -13 8
-1 20 26 27 32 8 35 7 35 -2z m300 -1 c0 -5 -7 -10 -16 -10 -8 0 -12 5 -9 10
3 6 10 10 16 10 5 0 9 -4 9 -10z m-842 -11 c-10 -5 -31 -11 -48 -12 -19 -1
-30 -8 -31 -17 0 -10 -2 -11 -6 -2 -2 6 -12 12 -21 13 -25 2 52 24 90 26 26 2
29 0 16 -8z m379 5 c-3 -3 -12 -4 -19 -1 -8 3 -5 6 6 6 11 1 17 -2 13 -5z
m-907 -14 c0 -5 -7 -10 -15 -10 -8 0 -15 5 -15 10 0 6 7 10 15 10 8 0 15 -4
15 -10z m987 -3 c-1 -5 -18 -11 -37 -12 -19 -1 -47 -6 -62 -10 -18 -5 -28 -3
-28 4 0 6 10 11 23 11 12 0 28 4 36 9 19 12 73 11 68 -2z m-277 -1 c0 -2 -7
-7 -16 -10 -8 -3 -12 -2 -9 4 6 10 25 14 25 6z m-313 -12 c-3 -3 -12 -4 -19
-1 -8 3 -5 6 6 6 11 1 17 -2 13 -5z m388 -14 c3 -5 1 -10 -4 -10 -6 0 -11 5
-11 10 0 6 2 10 4 10 3 0 8 -4 11 -10z m55 0 c0 -5 -5 -10 -11 -10 -5 0 -7 -4
-4 -10 3 -5 1 -10 -4 -10 -6 0 -11 9 -11 20 0 11 7 20 15 20 8 0 15 -4 15 -10z
m313 3 c-7 -2 -21 -2 -30 0 -10 3 -4 5 12 5 17 0 24 -2 18 -5z m-418 -13 c-3
-5 -14 -10 -23 -9 -14 0 -13 2 3 9 27 11 27 11 20 0z m-1760 -20 c21 -24 18
-31 -10 -19 -12 4 -14 8 -6 8 11 1 10 5 -5 16 -10 8 -14 15 -8 15 6 0 19 -9
29 -20z m1715 10 c0 -5 -5 -10 -11 -10 -5 0 -7 5 -4 10 3 6 8 10 11 10 2 0 4
-4 4 -10z m253 -27 c-20 -16 -40 -17 -48 -3 -4 6 5 10 19 10 18 0 26 5 26 18
0 14 2 15 10 2 7 -11 5 -19 -7 -27z m77 27 c0 -5 -12 -10 -27 -9 -25 0 -26 1
-8 9 27 12 35 12 35 0z m163 3 c-7 -2 -13 -12 -13 -22 0 -10 -8 -17 -20 -17
-11 0 -20 2 -20 3 0 10 38 41 50 41 10 0 11 -1 3 -5z m-1398 -32 c-6 -5 -25
10 -25 20 0 5 6 4 14 -3 8 -7 12 -15 11 -17z m1338 14 c-3 -9 -8 -14 -10 -11
-3 3 -2 9 2 15 9 16 15 13 8 -4z m-1378 -5 c3 -5 1 -10 -4 -10 -6 0 -11 5 -11
10 0 6 2 10 4 10 3 0 8 -4 11 -10z m1462 4 c-3 -3 -12 -4 -19 -1 -8 3 -5 6 6
6 11 1 17 -2 13 -5z m-1347 -15 c12 -8 9 -9 -12 -5 -21 5 -28 3 -28 -9 0 -8
-4 -15 -10 -15 -14 0 -13 13 2 28 15 15 28 15 48 1z m690 7 c0 -2 -9 -6 -20
-9 -11 -3 -18 -1 -14 4 5 9 34 13 34 5z m120 -7 c0 6 5 11 12 11 9 0 9 -3 0
-12 -12 -12 -72 -18 -72 -6 0 11 34 15 48 5 8 -6 12 -6 12 2z m408 2 c11 -7
10 -9 -3 -14 -9 -4 -14 -3 -10 2 3 5 -1 12 -7 14 -7 3 -8 6 -3 6 6 0 16 -3 23
-8z m-1311 -55 c-2 -6 -9 -12 -15 -14 -8 -2 -10 2 -5 13 5 14 2 16 -18 10 -13
-4 -21 -4 -16 0 4 5 0 17 -10 27 -13 15 -9 14 25 -4 23 -13 40 -27 39 -32z
m1240 48 c-3 -3 -12 -4 -19 -1 -8 3 -5 6 6 6 11 1 17 -2 13 -5z m-457 -24 c0
-5 -7 -10 -16 -10 -8 0 -12 5 -9 10 3 6 10 10 16 10 5 0 9 -4 9 -10z m490 6
c0 -3 -4 -8 -10 -11 -5 -3 -10 -1 -10 4 0 6 5 11 10 11 6 0 10 -2 10 -4z
m-2002 -17 c11 0 13 -2 4 -6 -10 -4 -10 -8 -1 -19 6 -8 15 -11 20 -8 5 3 9 2
9 -3 0 -4 10 -20 23 -35 12 -15 33 -42 47 -60 14 -18 42 -51 63 -73 20 -22 37
-45 37 -50 0 -6 13 -31 28 -56 30 -49 34 -70 13 -77 -8 -3 -12 1 -9 9 5 15
-85 168 -141 239 -53 67 -70 84 -86 86 -19 3 -46 30 -37 38 3 4 0 12 -8 17
-12 9 -12 10 3 5 10 -3 26 -6 35 -7z m2122 -4 c0 -10 10 -15 27 -15 34 0 24
-10 -22 -20 -32 -7 -36 -6 -30 8 4 10 8 23 8 30 1 17 17 15 17 -3z m-1975 -19
c13 -13 21 -27 18 -30 -4 -3 -1 -6 5 -6 6 0 16 -9 22 -20 18 -33 -8 -24 -29
10 -10 16 -20 28 -23 25 -2 -3 -10 6 -16 20 -14 31 -8 32 23 1z m1550 -6 c-3
-5 -16 -10 -28 -9 -20 1 -20 2 3 9 14 4 26 8 28 9 2 1 0 -3 -3 -9z m-1005 -11
c0 -5 -6 -9 -14 -9 -8 0 -16 -4 -18 -9 -1 -4 -14 -12 -28 -16 -14 -4 -22 -4
-18 0 4 5 2 15 -5 23 -9 13 -9 14 1 8 6 -4 12 -3 12 2 0 6 16 10 35 10 19 0
35 -4 35 -9z m647 -25 c-3 -3 -12 -4 -19 -1 -8 3 -5 6 6 6 11 1 17 -2 13 -5z
m-1200 -26 c-3 -8 -6 -5 -6 6 -1 11 2 17 5 13 3 -3 4 -12 1 -19z m460 -1 c-6
-20 -26 -19 -24 1 1 12 6 18 14 15 8 -3 12 -10 10 -16z m873 13 c0 -5 8 -7 18
-4 16 5 16 5 0 -6 -22 -14 -148 -21 -148 -8 0 6 11 8 25 6 14 -3 25 -1 25 3 0
5 14 7 30 5 17 -2 30 1 30 5 0 5 5 9 10 9 6 0 10 -4 10 -10z m-1409 -57 c18
-25 27 -43 21 -39 -6 3 -25 27 -42 52 -16 25 -26 43 -20 39 5 -3 24 -27 41
-52z m1476 51 c-3 -3 -12 -4 -19 -1 -8 3 -5 6 6 6 11 1 17 -2 13 -5z m183 -4
c0 -5 -5 -10 -11 -10 -5 0 -7 5 -4 10 3 6 8 10 11 10 2 0 4 -4 4 -10z m-1484
-18 c6 -4 13 -15 17 -24 3 -10 13 -18 22 -18 8 0 15 -4 15 -8 0 -5 9 -17 19
-29 10 -11 26 -34 35 -51 15 -30 15 -32 0 -32 -10 0 -15 3 -11 6 3 3 -3 16
-13 28 -65 74 -88 95 -95 88 -5 -4 -5 -2 -1 5 3 6 2 14 -4 18 -12 7 -14 25 -2
25 4 0 12 -4 18 -8z m1304 -6 c0 -3 -4 -8 -10 -11 -5 -3 -10 -1 -10 4 0 6 5
11 10 11 6 0 10 -2 10 -4z m-1000 -20 c0 -3 -4 -8 -10 -11 -5 -3 -10 -1 -10 4
0 6 5 11 10 11 6 0 10 -2 10 -4z m800 -6 c0 -5 -7 -10 -16 -10 -8 0 -12 5 -9
10 3 6 10 10 16 10 5 0 9 -4 9 -10z m69 6 c-12 -10 -60 -16 -54 -6 3 5 18 10
32 10 15 0 24 -2 22 -4z m-109 -22 c0 -8 -4 -12 -10 -9 -5 3 -10 10 -10 16 0
5 5 9 10 9 6 0 10 -7 10 -16z m-1093 -26 c-3 -8 -6 -5 -6 6 -1 11 2 17 5 13 3
-3 4 -12 1 -19z m1133 12 c0 -5 -5 -10 -11 -10 -5 0 -7 5 -4 10 3 6 8 10 11
10 2 0 4 -4 4 -10z m-1098 -45 c3 -13 2 -22 -2 -20 -4 3 -10 16 -12 30 -3 13
-2 22 2 20 4 -3 10 -16 12 -30z m842 7 c3 -5 -1 -9 -9 -9 -8 0 -15 4 -15 9 0
4 4 8 9 8 6 0 12 -4 15 -8z m-817 -59 c-3 -10 -5 -2 -5 17 0 19 2 27 5 18 2
-10 2 -26 0 -35z m33 23 c0 -3 -4 -8 -10 -11 -5 -3 -10 -1 -10 4 0 6 5 11 10
11 6 0 10 -2 10 -4z m130 -16 c0 -5 -5 -10 -11 -10 -5 0 -7 5 -4 10 3 6 8 10
11 10 2 0 4 -4 4 -10z m490 -24 c0 -2 -9 -6 -20 -9 -11 -3 -18 -1 -14 4 5 9
34 13 34 5z m-305 -36 c3 -5 2 -10 -4 -10 -5 0 -13 5 -16 10 -3 6 -2 10 4 10
5 0 13 -4 16 -10z m-235 -15 c-7 -9 -15 -13 -17 -11 -7 7 7 26 19 26 6 0 6 -6
-2 -15z m275 -3 c-3 -3 -11 0 -18 7 -9 10 -8 11 6 5 10 -3 15 -9 12 -12z
m-324 -15 c-10 -9 -11 -8 -5 6 3 10 9 15 12 12 3 -3 0 -11 -7 -18z m261 -17
c4 0 8 -4 8 -10 0 -19 -17 -10 -28 15 -15 33 -14 48 0 18 6 -13 15 -23 20 -23z
m-132 10 c0 -5 -4 -10 -10 -10 -5 0 -10 5 -10 10 0 6 5 10 10 10 6 0 10 -4 10
-10z m190 0 c0 -5 -2 -10 -4 -10 -3 0 -8 5 -11 10 -3 6 -1 10 4 10 6 0 11 -4
11 -10z m-305 -40 c-3 -5 -11 -10 -16 -10 -6 0 -7 5 -4 10 3 6 11 10 16 10 6
0 7 -4 4 -10z m242 -14 c4 -3 4 -9 0 -12 -8 -9 -88 6 -82 15 5 9 73 6 82 -3z
m43 -16 c0 -5 -2 -10 -4 -10 -3 0 -8 5 -11 10 -3 6 -1 10 4 10 6 0 11 -4 11
-10z"/>
<path d="M2967 5146 c-3 -8 1 -17 9 -20 8 -3 14 -13 14 -21 0 -9 5 -13 10 -10
6 4 8 11 5 16 -4 5 -1 9 4 9 6 0 11 -8 12 -17 0 -11 3 -13 6 -5 2 6 9 9 15 6
6 -4 9 -1 6 7 -3 8 -13 16 -24 18 -10 1 -26 10 -35 17 -14 13 -17 13 -22 0z"/>
<path d="M3228 5063 c12 -2 30 -2 40 0 9 3 -1 5 -23 4 -22 0 -30 -2 -17 -4z"/>
<path d="M2461 4864 c-7 -8 -11 -18 -7 -21 9 -9 38 6 32 16 -4 5 2 12 11 14
15 4 15 5 -2 5 -11 1 -26 -6 -34 -14z"/>
<path d="M2430 4749 c0 -5 5 -7 10 -4 6 3 10 8 10 11 0 2 -4 4 -10 4 -5 0 -10
-5 -10 -11z"/>
<path d="M2410 4471 c0 -16 28 -20 34 -5 4 9 -1 14 -14 14 -11 0 -20 -4 -20
-9z"/>
<path d="M2460 4260 c0 -5 5 -10 10 -10 6 0 10 5 10 10 0 6 -4 10 -10 10 -5 0
-10 -4 -10 -10z"/>
<path d="M2452 4231 c4 -13 18 -16 19 -4 0 4 -5 9 -11 12 -7 2 -11 -2 -8 -8z"/>
<path d="M3175 4080 c-72 -26 -136 -42 -148 -37 -9 3 -32 1 -51 -4 -49 -13
-47 -36 8 -94 25 -26 48 -60 51 -76 5 -23 15 -31 46 -40 21 -7 39 -18 39 -26
0 -13 12 -14 125 -18 22 -1 66 -7 98 -14 36 -8 82 -10 119 -6 54 7 61 5 75
-15 12 -18 22 -21 48 -17 26 4 38 0 56 -19 25 -27 65 -34 55 -9 -3 9 0 15 9
15 22 0 18 17 -7 35 -17 12 -20 18 -10 24 16 10 5 41 -16 41 -8 0 -23 6 -31
14 -15 13 -119 47 -186 62 -101 21 -217 64 -177 64 7 0 22 8 33 18 11 11 45
25 77 32 31 6 70 16 86 21 16 5 52 10 80 10 28 1 40 4 26 6 -14 3 -45 11 -70
20 -48 16 -299 26 -335 13z m252 -226 c-3 -3 -12 -4 -19 -1 -8 3 -5 6 6 6 11
1 17 -2 13 -5z"/>
<path d="M2880 4019 c0 -5 5 -7 10 -4 6 3 10 8 10 11 0 2 -4 4 -10 4 -5 0 -10
-5 -10 -11z"/>
<path d="M3705 4020 c-4 -6 -15 -8 -26 -5 -11 4 -19 2 -19 -4 0 -6 6 -11 13
-11 8 0 22 -9 31 -19 13 -15 14 -20 4 -24 -7 -3 4 -5 24 -4 45 2 47 12 13 50
-29 30 -31 31 -40 17z"/>
<path d="M3730 3889 c0 -5 5 -7 10 -4 6 3 10 8 10 11 0 2 -4 4 -10 4 -5 0 -10
-5 -10 -11z"/>
<path d="M3758 3833 c7 -3 16 -2 19 1 4 3 -2 6 -13 5 -11 0 -14 -3 -6 -6z"/>
<path d="M3292 3751 c2 -7 7 -12 11 -12 12 1 9 15 -3 20 -7 2 -11 -2 -8 -8z"/>
<path d="M3140 3737 c0 -16 32 -47 48 -47 7 0 12 -4 12 -9 0 -16 154 -54 233
-57 97 -4 94 13 -4 26 -72 9 -166 37 -189 55 -13 11 -86 45 -96 45 -2 0 -4 -6
-4 -13z"/>
<path d="M3335 3740 c-3 -5 1 -10 9 -10 9 0 16 5 16 10 0 6 -4 10 -9 10 -6 0
-13 -4 -16 -10z"/>
<path d="M3185 3346 c-11 -8 -16 -19 -12 -30 4 -11 1 -16 -11 -16 -15 -1 -15
-2 -2 -13 29 -24 71 -95 77 -131 3 -21 16 -44 29 -55 13 -11 24 -24 24 -30 0
-6 3 -11 8 -11 4 0 20 -16 36 -36 21 -27 25 -38 16 -44 -8 -5 -1 -12 22 -19
19 -6 40 -22 47 -34 17 -31 64 -25 80 9 7 16 7 24 0 24 -6 0 -6 7 1 20 9 17 8
20 -12 20 -16 0 -19 3 -10 9 11 6 9 15 -7 44 -11 19 -17 38 -14 41 3 3 -2 8
-11 12 -9 3 -24 22 -33 41 -15 33 -186 213 -202 213 -4 0 -16 -6 -26 -14z"/>
<path d="M3620 3099 c0 -5 5 -7 10 -4 6 3 10 8 10 11 0 2 -4 4 -10 4 -5 0 -10
-5 -10 -11z"/>
<path d="M2725 2871 c-3 -5 -2 -12 3 -15 5 -3 9 1 9 9 0 17 -3 19 -12 6z"/>
<path d="M2780 2819 c0 -5 5 -7 10 -4 6 3 10 8 10 11 0 2 -4 4 -10 4 -5 0 -10
-5 -10 -11z"/>
<path d="M2905 2720 c-3 -5 -1 -10 4 -10 6 0 11 5 11 10 0 6 -2 10 -4 10 -3 0
-8 -4 -11 -10z"/>
<path d="M3430 2630 c19 -13 30 -13 30 0 0 6 -10 10 -22 10 -19 0 -20 -2 -8
-10z"/>
<path d="M3300 2449 c0 -5 5 -7 10 -4 6 3 10 8 10 11 0 2 -4 4 -10 4 -5 0 -10
-5 -10 -11z"/>
<path d="M3242 2390 c-15 -25 -15 -30 2 -30 7 0 16 11 18 25 6 30 -3 32 -20 5z"/>
<path d="M2840 2380 c0 -5 5 -10 11 -10 5 0 7 5 4 10 -3 6 -8 10 -11 10 -2 0
-4 -4 -4 -10z"/>
<path d="M3390 2051 c0 -6 5 -13 10 -16 6 -3 10 1 10 9 0 9 -4 16 -10 16 -5 0
-10 -4 -10 -9z"/>
<path d="M3170 1926 c0 -2 9 -6 20 -9 11 -3 18 -1 14 4 -5 9 -34 13 -34 5z"/>
<path d="M3150 1860 c0 -5 7 -7 15 -4 8 4 15 8 15 10 0 2 -7 4 -15 4 -8 0 -15
-4 -15 -10z"/>
<path d="M3030 1680 c-13 -8 -12 -10 3 -10 9 0 17 5 17 10 0 12 -1 12 -20 0z"/>
<path d="M3010 1645 c0 -7 9 -15 20 -18 12 -3 20 0 20 8 0 7 -9 15 -20 18 -12
3 -20 0 -20 -8z"/>
<path d="M3048 1323 c6 -2 18 -2 25 0 6 3 1 5 -13 5 -14 0 -19 -2 -12 -5z"/>
<path d="M3522 1216 c-11 -24 0 -47 15 -32 4 3 1 6 -7 6 -10 0 -10 3 0 15 6 8
10 19 8 26 -2 6 -9 0 -16 -15z"/>
<path d="M3438 1146 c-6 -12 -17 -27 -25 -34 -18 -19 -16 -34 5 -30 9 2 16 10
15 16 -2 7 1 12 6 12 5 0 9 -11 9 -25 0 -14 -3 -25 -7 -25 -4 0 -8 -14 -9 -31
-1 -16 -8 -36 -14 -43 -13 -14 -61 -9 -52 6 3 5 15 6 26 2 17 -5 20 -3 15 11
-4 9 -7 19 -7 21 0 2 -9 4 -21 4 -11 0 -17 -4 -14 -10 3 -5 1 -10 -5 -10 -7 0
-10 -19 -8 -52 2 -39 9 -59 25 -76 13 -13 23 -18 23 -13 0 5 -5 13 -11 17 -8
4 -7 9 2 16 11 7 11 11 2 15 -7 2 -13 11 -13 19 0 10 9 5 24 -13 17 -20 21
-30 13 -35 -9 -6 -8 -11 3 -17 10 -7 20 -5 32 6 17 15 15 39 -2 28 -9 -6 -43
36 -35 44 3 2 12 -4 20 -15 13 -18 14 -18 8 4 -6 26 4 29 24 5 14 -17 14 -17
9 1 -5 13 -2 17 8 13 11 -4 13 3 8 36 -3 23 -11 48 -19 55 -15 16 -17 29 -3
37 5 3 7 12 3 20 -3 9 1 15 10 15 9 0 28 -27 46 -65 31 -65 48 -85 36 -42 -4
12 -15 41 -26 64 -10 24 -19 47 -19 53 0 5 -4 10 -10 10 -5 0 -10 5 -10 11 0
5 5 7 12 3 7 -4 8 -3 4 5 -12 18 -66 9 -78 -13z"/>
<path d="M3650 1067 c0 -8 5 -17 12 -19 9 -3 9 -6 1 -11 -6 -4 -19 0 -27 9 -9
8 -16 14 -17 12 -8 -36 -7 -38 27 -36 37 2 46 25 19 48 -12 10 -15 10 -15 -3z"/>
<path d="M2931 1031 c-10 -6 -10 -10 -1 -16 13 -8 24 -1 19 14 -3 6 -10 7 -18
2z"/>
<path d="M3645 1000 c-3 -5 -1 -10 4 -10 6 0 11 5 11 10 0 6 -2 10 -4 10 -3 0
-8 -4 -11 -10z"/>
<path d="M3670 995 c0 -8 5 -15 10 -15 6 0 10 7 10 15 0 8 -4 15 -10 15 -5 0
-10 -7 -10 -15z"/>
<path d="M2895 946 c8 -19 12 -43 9 -53 -9 -27 18 14 34 51 11 25 11 28 -3 22
-9 -3 -25 -1 -35 4 -18 10 -18 9 -5 -24z"/>
<path d="M3306 941 c-4 -5 -2 -12 3 -15 5 -4 12 -2 15 3 4 5 2 12 -3 15 -5 4
-12 2 -15 -3z"/>
<path d="M2741 903 c7 -12 15 -20 18 -17 3 2 -3 12 -13 22 -17 16 -18 16 -5
-5z"/>
<path d="M3534 907 c3 -10 6 -28 6 -38 0 -11 5 -17 10 -14 15 9 12 28 -6 51
-14 17 -15 17 -10 1z"/>
<path d="M2997 903 c-4 -3 -7 -11 -7 -17 0 -6 5 -5 12 2 6 6 9 14 7 17 -3 3
-9 2 -12 -2z"/>
<path d="M3605 870 c3 -5 8 -10 11 -10 2 0 4 5 4 10 0 6 -5 10 -11 10 -5 0 -7
-4 -4 -10z"/>
<path d="M3346 837 c3 -10 9 -15 12 -12 3 3 0 11 -7 18 -10 9 -11 8 -5 -6z"/>
<path d="M3412 829 c2 -7 10 -15 17 -17 8 -3 12 1 9 9 -2 7 -10 15 -17 17 -8
3 -12 -1 -9 -9z"/>
<path d="M3366 815 c-2 -7 -2 -15 0 -18 7 -7 44 4 44 13 0 14 -39 18 -44 5z"/>
<path d="M3335 790 c-3 -5 -1 -10 4 -10 6 0 11 5 11 10 0 6 -2 10 -4 10 -3 0
-8 -4 -11 -10z"/>
<path d="M3995 2040 c4 -12 2 -20 -5 -20 -7 0 -10 -8 -7 -20 7 -27 -8 -25 -20
2 -7 17 -9 7 -7 -42 1 -36 -1 -78 -6 -95 -5 -16 -14 -49 -20 -72 -8 -31 -15
-41 -25 -37 -16 7 -21 -11 -5 -21 13 -8 1 -36 -25 -60 -13 -11 -25 -29 -28
-40 -4 -16 -5 -17 -6 -2 0 9 -6 17 -12 17 -7 0 -10 -19 -7 -52 2 -41 -1 -57
-15 -71 -10 -10 -22 -15 -27 -12 -6 4 -10 2 -10 -4 0 -5 5 -13 10 -16 6 -3 10
-15 10 -26 0 -10 5 -19 10 -19 6 0 10 11 10 25 0 18 8 29 26 37 19 9 24 17 20
34 -4 13 -2 26 4 29 5 3 10 15 10 25 0 10 9 22 21 25 18 6 40 41 44 70 1 6 7
23 13 38 7 15 15 40 18 55 4 15 11 32 16 39 6 7 4 13 -4 16 -10 4 -10 6 0 6
15 1 16 38 1 43 -7 2 -4 16 9 38 21 37 29 130 11 130 -6 0 -8 -9 -4 -20z"/>
<path d="M4207 1846 c-20 -15 -26 -92 -9 -122 10 -17 11 -16 12 13 0 44 17 83
35 83 20 0 19 17 -3 29 -12 6 -23 5 -35 -3z"/>
<path d="M4278 1827 c6 -7 14 -37 18 -67 3 -30 11 -62 16 -70 5 -9 6 4 3 35
-12 101 -16 115 -32 115 -11 0 -13 -3 -5 -13z"/>
<path d="M3886 1795 c4 -8 11 -15 16 -15 6 0 5 6 -2 15 -7 8 -14 15 -16 15 -2
0 -1 -7 2 -15z"/>
<path d="M4150 1776 c-5 -15 -10 -36 -10 -47 0 -10 -4 -19 -10 -19 -5 0 -10
-7 -10 -16 0 -8 -4 -13 -9 -9 -6 3 -6 -6 -1 -25 5 -17 6 -46 3 -66 -5 -31 -8
-33 -16 -18 -8 15 -13 9 -27 -37 -16 -47 -18 -50 -20 -24 l-1 30 -10 -25 c-6
-14 -16 -28 -24 -33 -8 -4 -12 -14 -9 -22 4 -8 1 -15 -4 -15 -6 0 -14 -9 -17
-20 -4 -11 -11 -18 -16 -15 -5 4 -9 2 -9 -4 0 -12 -48 -61 -60 -61 -5 0 -12 5
-15 10 -4 6 -11 7 -17 4 -7 -5 -9 0 -6 14 4 15 2 19 -8 15 -8 -3 -14 -17 -14
-32 -1 -22 -2 -24 -11 -8 -18 30 -34 20 -34 -23 0 -26 4 -40 12 -40 7 0 13
-11 13 -24 0 -14 5 -28 10 -31 10 -6 13 6 12 65 l0 35 11 -27 c6 -16 14 -28
18 -28 4 0 10 -19 14 -42 6 -34 9 -38 17 -24 6 10 8 30 6 44 -2 17 3 34 14 45
10 9 18 13 18 7 0 -15 58 23 71 47 7 12 16 20 21 17 4 -3 8 4 8 15 0 15 5 19
16 14 14 -5 16 -1 12 20 -3 15 -1 24 3 21 5 -3 9 -12 9 -20 0 -8 5 -14 10 -14
6 0 10 6 9 13 -1 6 -1 27 0 46 1 27 4 31 14 22 11 -9 14 -3 15 26 2 40 32 85
32 48 1 -19 1 -19 11 -1 9 14 8 20 -2 27 -8 5 -9 9 -3 9 7 0 9 31 6 98 -2 53
-6 99 -8 101 -2 2 -8 -8 -14 -23z m-235 -456 c3 -5 1 -10 -4 -10 -6 0 -11 5
-11 10 0 6 2 10 4 10 3 0 8 -4 11 -10z"/>
<path d="M4360 1789 c0 -5 5 -7 10 -4 6 3 10 8 10 11 0 2 -4 4 -10 4 -5 0 -10
-5 -10 -11z"/>
<path d="M4040 1771 c0 -6 4 -13 10 -16 6 -3 7 1 4 9 -7 18 -14 21 -14 7z"/>
<path d="M4241 1724 c0 -11 3 -14 6 -6 3 7 2 16 -1 19 -3 4 -6 -2 -5 -13z"/>
<path d="M4350 1720 c0 -5 5 -10 10 -10 6 0 10 5 10 10 0 6 -4 10 -10 10 -5 0
-10 -4 -10 -10z"/>
<path d="M4247 1676 c-6 -16 23 -116 34 -116 3 0 7 20 7 45 1 25 -3 45 -8 45
-6 0 -10 6 -10 14 0 21 -17 29 -23 12z"/>
<path d="M4368 1683 c7 -3 16 -2 19 1 4 3 -2 6 -13 5 -11 0 -14 -3 -6 -6z"/>
<path d="M4315 1613 c18 -175 27 -220 42 -220 10 0 12 6 7 21 -4 12 -8 48 -10
81 -4 93 -10 128 -23 153 -19 35 -23 26 -16 -35z"/>
<path d="M4750 1641 c1 -15 30 -42 39 -36 21 12 12 40 -14 41 -14 1 -25 -1
-25 -5z"/>
<path d="M4199 1615 c-5 -19 2 -79 16 -140 5 -23 4 -26 -4 -15 -9 12 -11 9
-11 -13 0 -21 6 -30 20 -34 11 -3 20 -11 20 -19 0 -7 4 -16 10 -19 6 -3 7 1 4
9 -4 11 0 16 11 16 9 0 13 5 10 10 -4 6 -11 8 -16 4 -6 -3 -9 0 -8 7 2 13 -6
36 -34 96 -5 12 -7 32 -5 45 3 13 2 34 -2 48 -6 22 -7 23 -11 5z"/>
<path d="M4928 1593 c7 -3 16 -2 19 1 4 3 -2 6 -13 5 -11 0 -14 -3 -6 -6z"/>
<path d="M3912 1535 c0 -16 2 -22 5 -12 2 9 2 23 0 30 -3 6 -5 -1 -5 -18z"/>
<path d="M4250 1524 c0 -27 8 -51 25 -74 29 -39 32 -29 9 26 -9 21 -18 47 -20
57 -6 36 -14 31 -14 -9z"/>
<path d="M3930 1528 c0 -9 5 -20 10 -23 13 -8 13 5 0 25 -8 13 -10 13 -10 -2z"/>
<path d="M4291 1524 c0 -11 3 -14 6 -6 3 7 2 16 -1 19 -3 4 -6 -2 -5 -13z"/>
<path d="M4610 1511 c0 -5 6 -14 14 -20 11 -9 15 -8 20 5 9 23 7 31 -4 14 -6
-10 -10 -11 -10 -2 0 6 -4 12 -10 12 -5 0 -10 -4 -10 -9z"/>
<path d="M3941 1474 c0 -11 3 -14 6 -6 3 7 2 16 -1 19 -3 4 -6 -2 -5 -13z"/>
<path d="M4750 1470 c0 -5 5 -10 10 -10 6 0 10 5 10 10 0 6 -4 10 -10 10 -5 0
-10 -4 -10 -10z"/>
<path d="M4790 1460 c-13 -8 -12 -10 3 -10 9 0 17 5 17 10 0 12 -1 12 -20 0z"/>
<path d="M4740 1440 c0 -5 7 -7 15 -4 8 4 15 8 15 10 0 2 -7 4 -15 4 -8 0 -15
-4 -15 -10z"/>
<path d="M3791 1424 c0 -11 3 -14 6 -6 3 7 2 16 -1 19 -3 4 -6 -2 -5 -13z"/>
<path d="M4585 1420 c-4 -6 -12 -9 -19 -7 -6 3 -12 -3 -12 -13 0 -20 35 -15
43 7 7 18 -3 28 -12 13z"/>
<path d="M4720 1400 c0 -5 4 -10 9 -10 6 0 13 5 16 10 3 6 -1 10 -9 10 -9 0
-16 -4 -16 -10z"/>
<path d="M4270 1366 c0 -8 5 -18 10 -21 6 -3 10 1 10 9 0 8 -4 18 -10 21 -5 3
-10 -1 -10 -9z"/>
<path d="M4880 1360 c0 -5 7 -10 16 -10 8 0 12 5 9 10 -3 6 -10 10 -16 10 -5
0 -9 -4 -9 -10z"/>
<path d="M4340 1321 c0 -22 4 -29 14 -25 8 3 12 13 9 25 -9 32 -23 32 -23 0z"/>
<path d="M4925 1333 c-22 -9 -41 -20 -43 -25 -2 -4 -14 -8 -27 -8 -31 0 -41
-16 -15 -23 11 -3 18 -2 16 2 -5 7 15 16 97 46 26 10 47 19 47 21 0 9 -38 2
-75 -13z"/>
<path d="M4391 1314 c0 -11 3 -14 6 -6 3 7 2 16 -1 19 -3 4 -6 -2 -5 -13z"/>
<path d="M4795 1319 c-11 -16 -1 -19 13 -3 7 8 8 14 3 14 -5 0 -13 -5 -16 -11z"/>
<path d="M4410 1310 c0 -5 5 -10 11 -10 5 0 7 5 4 10 -3 6 -8 10 -11 10 -2 0
-4 -4 -4 -10z"/>
<path d="M4976 1305 c-25 -19 -9 -19 24 0 14 8 19 14 10 14 -8 0 -24 -6 -34
-14z"/>
<path d="M4250 1300 c0 -5 5 -10 10 -10 6 0 10 5 10 10 0 6 -4 10 -10 10 -5 0
-10 -4 -10 -10z"/>
<path d="M4937 1293 c-12 -12 -7 -33 8 -33 17 0 19 9 7 28 -5 7 -11 9 -15 5z"/>
<path d="M4105 1269 c15 -54 27 -76 42 -76 13 0 13 2 -2 13 -10 7 -15 20 -12
29 4 8 2 15 -4 15 -5 0 -9 7 -7 16 2 10 -3 19 -11 22 -10 3 -11 -2 -6 -19z"/>
<path d="M4343 1268 c0 -7 -3 -23 -7 -35 -5 -16 -3 -23 5 -23 7 0 9 -3 6 -6
-4 -4 -13 -1 -22 6 -9 8 -15 8 -15 2 0 -13 36 -25 50 -17 6 4 7 12 3 18 -4 6
-6 24 -5 39 1 15 -2 28 -6 28 -5 0 -9 -6 -9 -12z"/>
<path d="M5053 1270 c-28 -11 -29 -16 -3 -16 11 0 20 3 20 7 0 4 8 10 18 12
11 3 12 5 2 5 -8 0 -25 -3 -37 -8z"/>
<path d="M3862 1250 c0 -14 2 -19 5 -12 2 6 2 18 0 25 -3 6 -5 1 -5 -13z"/>
<path d="M4890 1260 c-12 -8 -11 -10 8 -10 12 0 22 -4 22 -10 0 -5 -11 -10
-25 -10 -14 0 -25 -4 -25 -8 0 -13 44 -9 58 5 11 11 11 17 2 28 -14 17 -20 18
-40 5z"/>
<path d="M4750 1253 c-37 -7 -46 -20 -10 -15 17 2 33 8 36 13 3 5 4 8 2 8 -2
-1 -14 -4 -28 -6z"/>
<path d="M4970 1250 c-13 -8 -12 -10 3 -10 9 0 17 5 17 10 0 12 -1 12 -20 0z"/>
<path d="M4253 1220 c6 -16 13 -27 15 -25 7 7 -8 55 -17 55 -5 0 -4 -13 2 -30z"/>
<path d="M4380 1199 c0 -5 5 -7 10 -4 6 3 10 8 10 11 0 2 -4 4 -10 4 -5 0 -10
-5 -10 -11z"/>
<path d="M4970 1190 c-11 -8 -7 -9 15 -4 37 8 45 14 19 14 -10 0 -26 -5 -34
-10z"/>
<path d="M4858 1183 c7 -3 16 -2 19 1 4 3 -2 6 -13 5 -11 0 -14 -3 -6 -6z"/>
<path d="M5025 1180 c-3 -6 1 -7 9 -4 18 7 21 14 7 14 -6 0 -13 -4 -16 -10z"/>
<path d="M4819 1159 c13 -14 27 -20 41 -16 14 3 20 1 17 -6 -2 -7 -19 -11 -38
-10 -19 0 -26 -1 -16 -4 10 -3 17 -14 17 -29 0 -23 2 -24 15 -10 8 8 15 18 15
22 0 10 62 64 73 64 4 0 10 -7 13 -15 4 -8 10 -12 16 -9 5 3 0 13 -12 21 -19
13 -28 14 -61 3 -30 -10 -45 -11 -64 -2 -36 17 -39 15 -16 -9z"/>
<path d="M4720 1149 c0 -5 5 -7 10 -4 6 3 10 8 10 11 0 2 -4 4 -10 4 -5 0 -10
-5 -10 -11z"/>
<path d="M5045 1140 c-4 -7 3 -8 22 -4 38 9 42 14 10 14 -14 0 -29 -5 -32 -10z"/>
<path d="M4925 1115 l-30 -13 28 -1 c15 -1 27 4 27 10 0 5 4 8 8 5 4 -2 14 -1
22 5 24 15 -20 10 -55 -6z"/>
<path d="M5097 1123 c-10 -9 -9 -23 2 -23 5 0 11 7 15 15 5 15 -5 20 -17 8z"/>
<path d="M4793 1096 c6 -15 3 -17 -14 -13 -11 3 -39 0 -62 -7 -23 -7 -48 -11
-55 -8 -6 2 -12 -4 -12 -12 0 -12 7 -15 28 -11 22 4 24 4 7 -4 -11 -5 -33 -10
-48 -10 -20 -1 -27 -6 -25 -17 2 -10 -3 -19 -10 -21 -7 -3 -10 1 -6 11 4 10 1
16 -10 16 -9 0 -13 -6 -10 -14 7 -18 -6 -26 -56 -31 -30 -3 -40 0 -40 11 0 8
-5 14 -10 14 -7 0 -7 -7 1 -21 9 -18 18 -20 49 -16 21 3 43 0 49 -6 7 -7 12
-5 17 7 4 12 10 14 19 6 18 -15 76 7 68 26 -3 8 -1 14 5 14 5 0 12 -9 15 -20
3 -11 13 -20 23 -20 16 0 16 1 -1 20 -10 11 -13 20 -7 20 7 0 12 -4 12 -10 0
-5 7 -10 16 -10 14 0 14 3 4 15 -10 13 -9 15 9 15 12 0 20 4 16 10 -3 5 -13 6
-22 3 -10 -4 -14 -2 -10 4 4 6 1 14 -5 16 -7 3 -3 6 10 6 13 1 20 5 17 11 -3
6 -1 10 4 10 6 0 11 -4 11 -10 0 -14 13 -13 32 3 16 11 16 13 0 27 -14 13 -15
12 -9 -4z m-133 -90 c0 -3 -4 -8 -10 -11 -5 -3 -10 -1 -10 4 0 6 5 11 10 11 6
0 10 -2 10 -4z"/>
<path d="M5048 1103 c7 -3 16 -2 19 1 4 3 -2 6 -13 5 -11 0 -14 -3 -6 -6z"/>
<path d="M5025 1080 c3 -5 8 -10 11 -10 2 0 4 5 4 10 0 6 -5 10 -11 10 -5 0
-7 -4 -4 -10z"/>
<path d="M4792 1051 c-10 -6 -10 -10 1 -19 15 -13 73 -6 83 9 3 5 -1 7 -8 5
-51 -16 -70 -17 -65 -2 7 18 7 19 -11 7z"/>
<path d="M4895 1050 c-4 -7 3 -8 22 -4 38 9 42 14 10 14 -14 0 -29 -5 -32 -10z"/>
<path d="M4928 1024 c-4 -4 -26 -8 -48 -9 -42 -2 -58 -10 -46 -22 3 -4 12 -1
18 5 17 17 31 15 24 -4 -3 -8 -2 -12 4 -9 5 3 8 -4 7 -15 -1 -13 -5 -16 -11
-10 -13 13 -26 13 -26 -1 0 -7 -8 -18 -17 -26 -17 -13 -16 -14 7 -8 14 3 43 9
65 12 31 4 41 10 42 24 1 11 -2 17 -7 14 -5 -3 -12 0 -16 6 -3 6 -1 15 6 19 7
4 11 13 9 19 -3 7 -8 9 -11 5z"/>
<path d="M4980 990 c0 -5 5 -10 10 -10 6 0 10 5 10 10 0 6 -4 10 -10 10 -5 0
-10 -4 -10 -10z"/>
<path d="M4790 960 c-18 -12 -2 -12 25 0 13 6 15 9 5 9 -8 0 -22 -4 -30 -9z"/>
<path d="M4648 953 c7 -3 16 -2 19 1 4 3 -2 6 -13 5 -11 0 -14 -3 -6 -6z"/>
<path d="M4748 943 c7 -3 16 -2 19 1 4 3 -2 6 -13 5 -11 0 -14 -3 -6 -6z"/>
<path d="M4710 930 c-9 -6 -10 -10 -3 -10 6 0 15 5 18 10 8 12 4 12 -15 0z"/>
<path d="M4825 893 c-36 -9 -43 -26 -7 -20 17 4 32 3 32 -1 0 -8 -71 -32 -93
-32 -7 0 -22 -7 -33 -15 -18 -15 -18 -15 6 -6 14 5 41 12 60 15 42 7 100 41
100 58 0 10 -2 10 -9 -1 -6 -9 -11 -10 -15 -2 -7 12 -9 12 -41 4z"/>
<path d="M4700 874 c0 -3 6 -12 14 -20 13 -12 15 -12 13 6 -1 17 -27 31 -27
14z"/>
<path d="M4680 820 c-8 -5 -12 -11 -9 -14 2 -3 11 -1 19 4 8 5 12 11 9 14 -2
3 -11 1 -19 -4z"/>
<path d="M4730 789 c0 -5 5 -7 10 -4 6 3 10 8 10 11 0 2 -4 4 -10 4 -5 0 -10
-5 -10 -11z"/>
<path d="M4680 750 c-18 -12 -2 -12 25 0 13 6 15 9 5 9 -8 0 -22 -4 -30 -9z"/>
<path d="M4555 650 c-8 -13 9 -20 24 -11 10 6 9 10 -3 14 -8 3 -18 2 -21 -3z"/>
</g>
</svg>
